<?xml version="1.0" encoding="UTF-8" standalone="no"?>
<!-- Copyright 2017 mathsisfun.com -->

<svg
   width="375.7"
   height="190.1"
   version="1.1"
   id="svg55"
   sodipodi:docname="function-min-max.svg"
   inkscape:version="1.3 (0e150ed6c4, 2023-07-21)"
   xmlns:inkscape="http://www.inkscape.org/namespaces/inkscape"
   xmlns:sodipodi="http://sodipodi.sourceforge.net/DTD/sodipodi-0.dtd"
   xmlns="http://www.w3.org/2000/svg"
   xmlns:svg="http://www.w3.org/2000/svg">
  <sodipodi:namedview
     id="namedview55"
     pagecolor="#ffffff"
     bordercolor="#000000"
     borderopacity="0.25"
     inkscape:showpageshadow="2"
     inkscape:pageopacity="0.0"
     inkscape:pagecheckerboard="0"
     inkscape:deskcolor="#d1d1d1"
     inkscape:zoom="1.8062154"
     inkscape:cx="182.70246"
     inkscape:cy="97.164493"
     inkscape:window-width="1422"
     inkscape:window-height="720"
     inkscape:window-x="0"
     inkscape:window-y="0"
     inkscape:window-maximized="1"
     inkscape:current-layer="svg55" />
  <defs
     id="defs1">
    <marker
       id="id1"
       style="overflow:visible;"
       orient="auto">
      <path
         transform="matrix(-0.4,0,0,-0.4,-4,0)"
         style="stroke:black; stroke-width:1pt;"
         d="M 0,0 5,-5 -12.5,0 5,5 Z"
         id="path1" />
    </marker>
    <marker
       style="overflow:visible;"
       orient="auto"
       id="id19736"
       inkscape:stockid="id19736">
      <path
         transform="matrix(-0.4,0,0,-0.4,-4,0)"
         style="stroke:#145c94;stroke-width:1pt;stroke-opacity:1.0;fill-opacity:1.0;fill:#145c94"
         d="M 0,0 5,-5 -12.5,0 5,5 Z"
         id="path55" />
    </marker>
    <marker
       style="overflow:visible;"
       orient="auto"
       id="id17446"
       inkscape:stockid="id17446">
      <path
         transform="matrix(-0.4,0,0,-0.4,-4,0)"
         style="stroke:#145c94;stroke-width:1pt;stroke-opacity:1.0;fill-opacity:1.0;fill:#145c94"
         d="M 0,0 5,-5 -12.5,0 5,5 Z"
         id="path56" />
    </marker>
  </defs>
  <g
     id="g11264"
     transform="matrix(1.8400271,0,0,1.8400271,578.40016,-187.95659)">
    <path
       style="font-size:11.3px;font-family:'Comic Sans MS';fill:none;stroke:#808080;stroke-width:0.6;stroke-miterlimit:4;stroke-dasharray:none;stroke-opacity:0.297398"
       d="m -312.06082,142.73362 h 203.94596"
       id="path10" />
    <path
       style="font-size:11.3px;font-family:'Comic Sans MS';fill:none;stroke:#808080;stroke-width:0.6;stroke-miterlimit:4;stroke-dasharray:none;stroke-opacity:0.297398"
       d="m -312.06082,111.22349 h 203.94596"
       id="path12" />
    <path
       style="font-size:11.3px;font-family:'Comic Sans MS';fill:none;stroke:#808080;stroke-width:0.6;stroke-miterlimit:4;stroke-dasharray:none;stroke-opacity:0.297398"
       d="m -312.06082,300.40136 h 203.94596"
       id="path14" />
    <path
       style="font-size:11.3px;font-family:'Comic Sans MS';fill:none;stroke:#808080;stroke-width:0.6;stroke-miterlimit:4;stroke-dasharray:none;stroke-opacity:0.297398"
       d="m -312.06082,237.38112 h 203.94596"
       id="path16" />
    <path
       style="font-size:11.3px;font-family:'Comic Sans MS';fill:none;stroke:#808080;stroke-width:0.6;stroke-miterlimit:4;stroke-dasharray:none;stroke-opacity:0.297398"
       d="m -312.06082,205.75386 h 203.94596"
       id="path18" />
    <path
       style="font-size:11.3px;font-family:'Comic Sans MS';fill:none;stroke:#808080;stroke-width:0.6;stroke-miterlimit:4;stroke-dasharray:none;stroke-opacity:0.297398"
       d="m -312.06082,174.24374 h 203.94596"
       id="path20" />
    <path
       style="font-size:11.3px;font-family:'Comic Sans MS';fill:none;stroke:#808080;stroke-width:0.6;stroke-miterlimit:4;stroke-dasharray:none;stroke-opacity:0.297398"
       d="m -312.06082,268.89124 h 203.94596"
       id="path22" />
    <path
       style="font-size:11.3px;font-family:'Comic Sans MS';fill:none;stroke:#808080;stroke-width:0.6;stroke-miterlimit:4;stroke-dasharray:none;stroke-opacity:0.297398"
       d="m -312.06082,158.54725 h 203.94596"
       id="path24" />
    <path
       style="font-size:11.3px;font-family:'Comic Sans MS';fill:none;stroke:#808080;stroke-width:0.6;stroke-miterlimit:4;stroke-dasharray:none;stroke-opacity:0.297398"
       d="m -312.06082,127.03712 h 203.94596"
       id="path26" />
    <path
       style="font-size:11.3px;font-family:'Comic Sans MS';fill:none;stroke:#808080;stroke-width:0.6;stroke-miterlimit:4;stroke-dasharray:none;stroke-opacity:0.297398"
       d="m -312.06082,95.527001 h 203.94596"
       id="path28" />
    <path
       style="font-size:11.3px;font-family:'Comic Sans MS';fill:none;stroke:#808080;stroke-width:0.6;stroke-miterlimit:4;stroke-dasharray:none;stroke-opacity:0.297398"
       d="m -312.06082,253.07761 h 203.94596"
       id="path30" />
    <path
       style="font-size:11.3px;font-family:'Comic Sans MS';fill:none;stroke:#808080;stroke-width:0.6;stroke-miterlimit:4;stroke-dasharray:none;stroke-opacity:0.297398"
       d="m -312.06082,221.56749 h 203.94596"
       id="path32" />
    <path
       style="font-size:11.3px;font-family:'Comic Sans MS';fill:none;stroke:#808080;stroke-width:0.6;stroke-miterlimit:4;stroke-dasharray:none;stroke-opacity:0.297398"
       d="m -312.06082,190.05737 h 203.94596"
       id="path34" />
    <path
       style="font-size:11.3px;font-family:'Comic Sans MS';fill:none;stroke:#808080;stroke-width:0.6;stroke-miterlimit:4;stroke-dasharray:none;stroke-opacity:0.297398"
       d="m -312.06082,284.58773 h 203.94596"
       id="path36" />
    <path
       style="font-size:11.3px;font-family:'Comic Sans MS';fill:none;stroke:#808080;stroke-width:0.6;stroke-miterlimit:4;stroke-dasharray:none;stroke-opacity:0.297398"
       d="M -265.08648,299.81567 V 95.409871"
       id="path38" />
    <path
       style="font-size:11.3px;font-family:'Comic Sans MS';fill:none;stroke:#808080;stroke-width:0.6;stroke-miterlimit:4;stroke-dasharray:none;stroke-opacity:0.297398"
       d="M -296.59795,299.81567 V 95.409871"
       id="path40-6" />
    <path
       style="font-size:11.3px;font-family:'Comic Sans MS';fill:none;stroke:#808080;stroke-width:0.6;stroke-miterlimit:4;stroke-dasharray:none;stroke-opacity:0.297398"
       d="M -107.52915,299.81567 V 95.409871"
       id="path42-7" />
    <path
       style="font-size:11.3px;font-family:'Comic Sans MS';fill:none;stroke:#808080;stroke-width:0.6;stroke-miterlimit:4;stroke-dasharray:none;stroke-opacity:0.297398"
       d="M -170.55208,299.81567 V 95.409871"
       id="path44-5" />
    <path
       style="font-size:11.3px;font-family:'Comic Sans MS';fill:none;stroke:#808080;stroke-width:0.6;stroke-miterlimit:4;stroke-dasharray:none;stroke-opacity:0.297398"
       d="M -202.06355,299.81567 V 95.409871"
       id="path46-3" />
    <path
       style="font-size:11.3px;font-family:'Comic Sans MS';fill:none;stroke:#808080;stroke-width:0.6;stroke-miterlimit:4;stroke-dasharray:none;stroke-opacity:0.297398"
       d="M -233.57501,299.81567 V 95.409871"
       id="path48-5" />
    <path
       style="font-size:11.3px;font-family:'Comic Sans MS';fill:none;stroke:#808080;stroke-width:0.6;stroke-miterlimit:4;stroke-dasharray:none;stroke-opacity:0.297398"
       d="M -139.04061,299.81567 V 95.409871"
       id="path50-6" />
    <path
       style="font-size:11.3px;font-family:'Comic Sans MS';fill:none;stroke:#808080;stroke-width:0.6;stroke-miterlimit:4;stroke-dasharray:none;stroke-opacity:0.297398"
       d="M -249.38932,299.81567 V 95.409871"
       id="path52-2" />
    <path
       style="font-size:11.3px;font-family:'Comic Sans MS';fill:none;stroke:#808080;stroke-width:0.6;stroke-miterlimit:4;stroke-dasharray:none;stroke-opacity:0.297398"
       d="M -280.90079,299.81567 V 95.409871"
       id="path54-9" />
    <path
       style="font-size:11.3px;font-family:'Comic Sans MS';fill:none;stroke:#808080;stroke-width:0.6;stroke-miterlimit:4;stroke-dasharray:none;stroke-opacity:0.297398"
       d="M -312.41225,299.81567 V 95.409871"
       id="path58" />
    <path
       style="font-size:11.3px;font-family:'Comic Sans MS';fill:none;stroke:#808080;stroke-width:0.6;stroke-miterlimit:4;stroke-dasharray:none;stroke-opacity:0.297398"
       d="M -154.73777,299.81567 V 95.409871"
       id="path59" />
    <path
       style="font-size:11.3px;font-family:'Comic Sans MS';fill:none;stroke:#808080;stroke-width:0.6;stroke-miterlimit:4;stroke-dasharray:none;stroke-opacity:0.297398"
       d="M -186.24924,299.81567 V 95.409871"
       id="path60" />
    <path
       style="font-size:11.3px;font-family:'Comic Sans MS';fill:none;stroke:#808080;stroke-width:0.6;stroke-miterlimit:4;stroke-dasharray:none;stroke-opacity:0.297398"
       d="M -217.76071,299.81567 V 95.409871"
       id="path62" />
    <path
       style="font-size:11.3px;font-family:'Comic Sans MS';fill:none;stroke:#808080;stroke-width:0.6;stroke-miterlimit:4;stroke-dasharray:none;stroke-opacity:0.297398"
       d="M -123.22631,299.81567 V 95.409871"
       id="path64" />
  </g>
  <path
     style="fill:none;fill-opacity:0.75;stroke:#145c94;stroke-width:1.5;marker-end:url(#id17446)"
     d="M -3.1,161.7 H 351.5"
     id="path39" />
  <path
     style="marker-end:url(#id19736);fill:none;fill-opacity:0.75;stroke:#145c94;stroke-width:1.5"
     d="M 61.4,268.5 V 9.6"
     id="path40" />
  <text
     x="333.39999"
     y="182.39999"
     style="font-style:normal;font-variant:normal;font-weight:normal;font-stretch:normal;font-size:28px;font-family:'Trebuchet MS';-inkscape-font-specification:'Trebuchet MS';overflow:visible;fill:#145c94;stroke-width:0.5px"
     id="text40">x</text>
  <text
     x="40.5"
     y="22.2"
     style="font-family:'Trebuchet MS';font-weight:normal;font-size:28px;font-style:normal;overflow:visible;fill:#145c94;stroke-width:0.5px;-inkscape-font-specification:'Trebuchet MS';font-stretch:normal;font-variant:normal"
     id="text41">y</text>
  <text
     x="20.4"
     y="109.1"
     style="font-family:'Trebuchet MS';font-size:18.1px;overflow:visible;fill:#0197fd;stroke-width:1.1;-inkscape-font-specification:'Trebuchet MS';font-weight:normal;font-style:normal;font-stretch:normal;font-variant:normal"
     id="text42">f(x)</text>
  <path
     style="overflow:visible; fill:none; stroke:#0197fd; stroke-width:2.5; stroke-linecap:round;"
     d="m 8.6,151.8 c 0,0 73,-67.9 101.6,-65.5 28.6,2.4 24.5,33.2 45.3,32 20.8,-1.1 51.2,-56.6 66.7,-58 15.5,-1.4 13.4,10.1 27.4,39.3 7,14.6 12.3,18.4 40.3,18.8 28,0.4 44.5,18.7 44.5,18.7"
     id="path42" />
  <circle
     cx="109.4"
     cy="85.9"
     r="2.69149"
     style="overflow:visible; fill:#f0a513; stroke:#fdca01; stroke-width:2.25;"
     id="circle42" />
  <circle
     cx="223.9"
     cy="60.7"
     r="2.69149"
     style="overflow:visible; fill:#f0a513; stroke:#fdca01; stroke-width:2.25;"
     id="circle43" />
  <circle
     cx="154"
     cy="118.5"
     r="2.69149"
     style="overflow:visible; fill:#0169c9; stroke:#0169c9; stroke-width:2.25;"
     id="circle44" />
  <text
     x="178.1"
     y="152.6"
     style="font-family:'Trebuchet MS';font-size:18.1px;overflow:visible;fill:#0169c9;stroke-width:1.1;-inkscape-font-specification:'Trebuchet MS';font-weight:normal;font-style:normal;font-stretch:normal;font-variant:normal"
     id="text44">Local Minimum</text>
  <g
     transform="matrix(0.012109,0.499758,0.389472,-0.015538,-1441.36,497.01)"
     id="g46">
    <path
       style="overflow:visible; fill:#0169c9; stroke-width:2.2;"
       d="m -610.7,4119.1 c 6.1,-0.5 12.2,0.9 17.9,2.9 4.4,1.8 8.4,4.5 11.6,8 3.7,4 6.3,8.9 9,13.6 1.7,3.5 3.7,6.9 4.6,10.8 0.7,2.5 1.5,4.9 2.1,7.4 -2.3,1.4 -4.6,2.9 -6.9,4.3 -0.8,-3.7 -2.1,-7.3 -3,-11 -2.5,-5.7 -5.5,-11.2 -9,-16.4 -3.3,-4.7 -8,-8.5 -13.5,-10.2 -4.8,-1.4 -9.9,-2.9 -14.9,-1.7 -0.8,0.2 0.4,-1.8 0.4,-2.5 0.6,-1.7 1,-3.5 1.7,-5.2 z"
       id="path44" />
    <path
       style="overflow:visible; fill:#0169c9; stroke-width:2.2;"
       d="m -609.8,4114.8 c 3.5,-1.5 7.2,-2.4 10.4,-4.5 3.9,-2.3 7.8,-4.6 11.4,-7.3 -0.4,2.7 -0.9,5.3 -1.3,8 -4.3,2.8 -8.6,5.6 -13.2,7.8 -3.3,1.2 -6.5,2.8 -10,3.3 -1.4,0.1 0.3,-1.6 0.4,-2.4 0.8,-1.7 1.6,-3.3 2.4,-4.9 z"
       id="path45" />
    <path
       style="overflow:visible; fill:#0169c9; stroke-width:2.2;"
       d="m -607.9,4118 c 3,2.2 4.1,6.1 5.1,9.5 0.8,4.2 2.1,8.3 2.1,12.6 -2.4,1.2 -4.9,2.5 -7.3,3.7 0,-3.2 -0,-6.5 -0.8,-9.6 -0.8,-3.4 -1.3,-7 -3.4,-9.8 -0.8,-0.7 1,-1.7 1.3,-2.5 1.1,-1.4 2.2,-2.8 3.3,-4.2 -0.1,0.1 -0.2,0.2 -0.3,0.3 z"
       id="path46" />
  </g>
  <g
     transform="rotate(20.69,114.853,94.6122)"
     id="g48">
    <path
       style="overflow:visible; fill:#f0a513; stroke-width:1.1;"
       d="m 104,44 c -0.6,2.6 -1.7,5.1 -2.2,7.7 -1.2,5.6 -1.5,11.6 0,17.2 0.5,1.9 0.9,3.7 1.4,5.6 -1.2,0.7 -2.4,1.4 -3.5,2.2 -0.7,-2.8 -1.4,-5.7 -2,-8.6 -1.1,-6.3 -0.3,-12.8 1.2,-19 0.4,-1.3 0.6,-2.8 1.3,-3.9 1.2,-0.4 2.4,-0.9 3.6,-1.2 z"
       id="path47" />
    <path
       style="overflow:visible; fill:#f0a513; stroke-width:1.1;"
       d="m 91.7,65.1 c 4.7,2.4 8.6,6.3 11.6,10.7 0.4,0.5 1.3,1.9 1.3,1.9 -1.4,-0.6 -1.8,1.7 -2.8,2.4 -1,-0.3 -0.5,-2.2 -0.7,-3.1 0,-2.4 1,-4.6 1.8,-6.7 0.7,-1.7 1.4,-3.4 2.3,-5 1.3,-0.3 2.7,-0.5 4,-0.8 -1.7,2.7 -2.9,5.7 -3.9,8.7 -0.6,1.5 -0.7,3.2 -0.3,4.8 0,1.4 -1.1,2.8 -2.5,3.1 -1.4,-0.4 -1.8,-2.1 -2.7,-3.1 -2.6,-3.9 -6,-7.4 -10.2,-9.4 -0.2,-0.3 0.5,-0.9 0.7,-1.3 0.4,-0.7 1,-1.5 1.3,-2.1 z"
       id="path48" />
  </g>
  <path
     style="fill:none; stroke:#ef2929; stroke-width:2.5; stroke-dasharray:2.5, 2.5;"
     d="m 77.6,86.3 h 60.2"
     id="path49" />
  <path
     style="color:black; overflow:visible; fill:none; stroke:#ef2929; stroke-width:2.5; stroke-dasharray:2.5, 2.5;"
     d="m 122.5,118.8 h 60.2"
     id="path50" />
  <path
     style="color:black; overflow:visible; fill:none; stroke:#ef2929; stroke-width:2.5; stroke-dasharray:2.5, 2.5;"
     d="m 192.5,60.6 h 60.2"
     id="path51" />
  <circle
     cx="286.2"
     cy="118.7"
     r="2.69149"
     style="overflow:visible; fill:#009100; stroke:#009100; stroke-width:2.25;"
     id="circle51" />
  <path
     style="color:black; overflow:visible; fill:none; stroke:#ef2929; stroke-width:2.5; stroke-dasharray:2.5, 2.5;"
     d="m 255.8,118.4 h 60.2"
     id="path52" />
  <text
     x="264.52902"
     y="109.88346"
     style="font-style:normal;font-variant:normal;font-weight:normal;font-stretch:normal;font-size:18.1px;font-family:'Trebuchet MS';-inkscape-font-specification:'Trebuchet MS';overflow:visible;fill:#009100;stroke-width:1.1"
     id="text52">Saddle Point</text>
  <text
     x="110.6"
     y="38.7"
     style="font-family:'Trebuchet MS';font-size:18.1px;overflow:visible;fill:#f0a513;stroke-width:1.1;-inkscape-font-specification:'Trebuchet MS';font-weight:normal;font-style:normal;font-stretch:normal;font-variant:normal"
     id="text53">Maximum</text>
  <text
     x="128.7"
     y="22.1"
     style="font-family:'Trebuchet MS';font-size:18.1px;overflow:visible;fill:#f0a513;stroke-width:1.1;-inkscape-font-specification:'Trebuchet MS';font-weight:normal;font-style:normal;font-stretch:normal;font-variant:normal"
     id="text54">Local</text>
  <g
     transform="matrix(-0.607594,0.794248,0.794248,0.607594,219.417,-75.0976)"
     id="g55">
    <path
       style="overflow:visible; fill:#f0a513; stroke-width:1.1;"
       d="m 104,44 c -0.6,2.6 -1.7,5.1 -2.2,7.7 -1.2,5.6 -1.5,11.6 0,17.2 0.5,1.9 0.9,3.7 1.4,5.6 -1.2,0.7 -2.4,1.4 -3.5,2.2 -0.7,-2.8 -1.4,-5.7 -2,-8.6 -1.1,-6.3 -0.3,-12.8 1.2,-19 0.4,-1.3 0.6,-2.8 1.3,-3.9 1.2,-0.4 2.4,-0.9 3.6,-1.2 z"
       id="path54" />
    <path
       style="overflow:visible; fill:#f0a513; stroke-width:1.1;"
       d="m 91.7,65.1 c 4.7,2.4 8.6,6.3 11.6,10.7 0.4,0.5 1.3,1.9 1.3,1.9 -1.4,-0.6 -1.8,1.7 -2.8,2.4 -1,-0.3 -0.5,-2.2 -0.7,-3.1 0,-2.4 1,-4.6 1.8,-6.7 0.7,-1.7 1.4,-3.4 2.3,-5 1.3,-0.3 2.7,-0.5 4,-0.8 -1.7,2.7 -2.9,5.7 -3.9,8.7 -0.6,1.5 -0.7,3.2 -0.3,4.8 0,1.4 -1.1,2.8 -2.5,3.1 -1.4,-0.4 -1.8,-2.1 -2.7,-3.1 -2.6,-3.9 -6,-7.4 -10.2,-9.4 -0.2,-0.3 0.5,-0.9 0.7,-1.3 0.4,-0.7 1,-1.5 1.3,-2.1 z"
       id="path57" />
  </g>
</svg>
